# xmcd
#
# Track frame offsets:
#	150
#	15537
#	30842
#	54417
#	73712
#	96385
#	114507
#	125830
#	141372
#	159485
#	174345
#
# Disc length: 2696 seconds
#
# Revision: 1
# Processed by: cddbd v1.5PL3 Copyright (c) Steve Scherf et al.
# Submitted via: audiograbber 1.83.01
#
DISCID=900a860b
DTITLE=The Darell Christopher Blues Band - Jealous Man
DYEAR=1900
DGENRE=
TTITLE0=Witchin' Moon
TTITLE1=Me And My Guitar
TTITLE2=Jealous Man
TTITLE3=Seventh  Son
TTITLE4=I Can't Hold On
TTITLE5=Ice Man
TTITLE6=Hard Way
TTITLE7=Real Gone Lover
TTITLE8=Strut
TTITLE9=Train Blues
TTITLE10=I PLay The Blues For You
EXTD=
EXTT0=
EXTT1=
EXTT2=
EXTT3=
EXTT4=
EXTT5=
EXTT6=
EXTT7=
EXTT8=
EXTT9=
EXTT10=
PLAYORDER=
